<svg xmlns="http://www.w3.org/2000/svg" viewBox="0 0 148.31 35.35"><defs><style>.cls-1,.cls-3{fill:#714d2f;}.cls-2{fill:none;stroke:#714d2f;stroke-miterlimit:10;stroke-width:2px;}.cls-3{font-size:29px;font-family:KozGoPr6N-Regular-90ms-RKSJ-H, Kozuka Gothic Pr6N;}</style></defs><g id="レイヤー_2" data-name="レイヤー 2"><g id="テンプレート_header-logo.png" data-name="テンプレート header-logo.png"><path class="cls-1" d="M130.85,24.91v-16c2.06,3.42,4.73,7.68,4.73,10.82a5.68,5.68,0,0,1-4.66,5.59Z"/><path class="cls-2" d="M126,13.93a8.73,8.73,0,0,0-1.82,5.81,5.68,5.68,0,1,0,11.36,0c0-3.14-2.67-7.4-4.73-10.82v16"/><circle class="cls-2" cx="141.63" cy="19.74" r="5.68"/><path class="cls-1" d="M136,19.74a6,6,0,0,0,5.68,5.68s5.9-.94,5.68-5.68h-5.68"/><circle class="cls-2" cx="141.63" cy="7.9" r="5.68"/><path class="cls-1" d="M141.63,2.71A6,6,0,0,0,136,8.39s.94,5.9,5.68,5.68V8.39"/><text class="cls-3" transform="translate(0 25.52)">Portfolio</text></g></g></svg>